<svg width="180" height="36" viewBox="0 0 180 36" fill="none" xmlns="http://www.w3.org/2000/svg">
<path d="M66.4536 18.272C66.4536 19.328 66.2496 20.3 65.8416 21.188C65.4336 22.052 64.8696 22.796 64.1496 23.42C63.4296 24.044 62.5776 24.536 61.5936 24.896C60.6096 25.232 59.5416 25.4 58.3896 25.4C57.2376 25.4 56.1696 25.232 55.1856 24.896C54.2016 24.56 53.3496 24.08 52.6296 23.456C51.9096 22.832 51.3456 22.088 50.9376 21.224C50.5296 20.336 50.3256 19.352 50.3256 18.272C50.3256 17.24 50.5296 16.292 50.9376 15.428C51.3456 14.564 51.9096 13.82 52.6296 13.196C53.3496 12.572 54.2016 12.092 55.1856 11.756C56.1696 11.396 57.2376 11.216 58.3896 11.216C59.5416 11.216 60.6096 11.384 61.5936 11.72C62.5776 12.056 63.4296 12.536 64.1496 13.16C64.8696 13.784 65.4336 14.528 65.8416 15.392C66.2496 16.256 66.4536 17.216 66.4536 18.272ZM74.9856 16.364V31.844L70.5216 33.284V0.811998H74.9856V12.692H80.0256V16.364H74.9856ZM48.4176 9.452V5.888H55.9776V1.244H60.6576V5.888H67.9656V9.452H48.4176ZM62.1336 18.272C62.1336 17.192 61.7736 16.34 61.0536 15.716C60.3576 15.092 59.4696 14.78 58.3896 14.78C57.3096 14.78 56.4216 15.092 55.7256 15.716C55.0296 16.34 54.6816 17.192 54.6816 18.272C54.6816 19.328 55.0296 20.18 55.7256 20.828C56.4216 21.476 57.3096 21.8 58.3896 21.8C59.5416 21.8 60.4536 21.476 61.1256 20.828C61.7976 20.18 62.1336 19.328 62.1336 18.272ZM108.103 16.364V31.844L103.639 33.284V0.811998H108.103V12.692H113.143V16.364H108.103ZM82.8668 3.584H87.2948V20.612L101.623 19.1V22.664L82.8668 24.788V3.584ZM119.188 17.732V2H141.148V5.672H123.652V8.084H140.248V11.684H123.652V14.132H141.256V17.732H119.188ZM127.792 34.364V23.924H114.76V20.252H145.324V23.924H132.256V32.924L127.792 34.364ZM148.273 14.06C148.273 12.428 148.489 10.928 148.921 9.56C149.353 8.192 149.953 7.028 150.721 6.068C151.513 5.084 152.461 4.328 153.565 3.8C154.669 3.248 155.905 2.972 157.273 2.972C158.449 2.972 159.529 3.176 160.513 3.584C161.521 3.992 162.397 4.58 163.141 5.348C163.909 6.092 164.533 6.992 165.013 8.048C165.517 9.104 165.865 10.28 166.057 11.576H171.709V0.811998H176.173V31.844L171.709 33.284V15.356H166.201C166.081 16.82 165.793 18.152 165.337 19.352C164.881 20.528 164.257 21.548 163.465 22.412C162.697 23.252 161.785 23.912 160.729 24.392C159.697 24.848 158.545 25.076 157.273 25.076C155.905 25.076 154.669 24.812 153.565 24.284C152.461 23.732 151.513 22.976 150.721 22.016C149.953 21.032 149.353 19.868 148.921 18.524C148.489 17.18 148.273 15.692 148.273 14.06ZM152.701 14.024C152.701 16.328 153.133 18.128 153.997 19.424C154.861 20.696 155.953 21.332 157.273 21.332C158.593 21.332 159.685 20.696 160.549 19.424C161.413 18.128 161.845 16.328 161.845 14.024C161.845 11.744 161.413 9.956 160.549 8.66C159.685 7.364 158.593 6.716 157.273 6.716C155.953 6.716 154.861 7.364 153.997 8.66C153.133 9.956 152.701 11.744 152.701 14.024Z" fill="#5E2BB8"/>
<path d="M0 30.1492V0.705922C0 0.188223 0.539311 -0.152947 1.0071 0.0688277L9.7499 4.21369C9.99602 4.33037 10.1529 4.5784 10.1529 4.85078V34.2941C10.1529 34.8118 9.61361 35.1529 9.14582 34.9312L0.403025 30.7863C0.156898 30.6696 0 30.4216 0 30.1492Z" fill="#5E2BB8"/>
<path d="M28.7666 30.1492V0.705922C28.7666 0.188223 29.3059 -0.152947 29.7737 0.0688277L38.5165 4.21369C38.7626 4.33037 38.9195 4.5784 38.9195 4.85078V34.2941C38.9195 34.8118 38.3802 35.1529 37.9124 34.9312L29.1696 30.7863C28.9235 30.6696 28.7666 30.4216 28.7666 30.1492Z" fill="#5E2BB8"/>
<path fill-rule="evenodd" clip-rule="evenodd" d="M23.5301 17.5521C23.9978 17.3312 24.5362 17.6724 24.5362 18.1896V30.1492C24.5362 30.4216 24.3793 30.6696 24.1332 30.7863L15.3904 34.9312C14.9226 35.1529 14.3833 34.8118 14.3833 34.2941V22.3182C14.3833 22.0454 14.5406 21.7971 14.7873 21.6806L23.5301 17.5521ZM24.1322 13.0374C24.3789 12.9209 24.5362 12.6726 24.5362 12.3998V0.70592C24.5362 0.188222 23.9969 -0.152946 23.5291 0.0688279L14.7863 4.21369C14.5402 4.33037 14.3833 4.5784 14.3833 4.85078V16.5283C14.3833 17.0456 14.9217 17.3868 15.3894 17.1659L24.1322 13.0374Z" fill="#07D1D9"/>
</svg>
